# xmcd CD database file
#
# Track frame offsets:
#	150
#	33448
#	51782
#	83869
#	104335
#	125043
#	143881
#	168039
#	185787
#	212650
#	230548
#	244504
#	261122
#	278370
#	294211
#	316553
#	332865
#
# Disc length: 4682 seconds
#
# Revision: 0
# Processed by: cddbd v1.5.2PL0 Copyright (c) Steve Scherf et al.
# Submitted via: CDex 1.51
#
DISCID=eb124811
DTITLE=Terry Gibbs - Terry Gibbs and Mallets-A-Plenty
DYEAR=2013
DGENRE=Jazz
TTITLE0=Seven Come Eleven
TTITLE1=Lonely Dreams
TTITLE2=Dickie's Dream
TTITLE3=Imagination
TTITLE4=King City Stomp
TTITLE5=Pretty Face
TTITLE6=The Continental
TTITLE7=Bless My Soles
TTITLE8=Nutty Notes
TTITLE9=Nothing To It
TTITLE10=Mean To Me
TTITLE11=Haunted
TTITLE12=Er-Bee-I
TTITLE13=Gibberish
TTITLE14=I'll Remember April
TTITLE15=Soupy's On
TTITLE16=Then It Happens
EXTD=YEAR: 2013
EXTT0=
EXTT1=
EXTT2=
EXTT3=
EXTT4=
EXTT5=
EXTT6=
EXTT7=
EXTT8=
EXTT9=
EXTT10=
EXTT11=
EXTT12=
EXTT13=
EXTT14=
EXTT15=
EXTT16=
PLAYORDER=
